# xmcd
#
# Track frame offsets:
#	150
#	19455
#	41579
#
# Disc length: 885 seconds
#
# Revision: 1
# Processed by: cddbd v1.5.2PL0 Copyright (c) Steve Scherf et al.
# Submitted via: EasyCDDAExtractor 10.0.2.1
#
DISCID=20037303
DTITLE=Embassy Of Silence - Wendigo Winter
DYEAR=2008
DGENRE=Metal
TTITLE0=Lilith Aether
TTITLE1=Pasiion And Savagery
TTITLE2=Void
EXTD=
EXTT0=
EXTT1=
EXTT2=
PLAYORDER=
